<svg
        xmlns="http://www.w3.org/2000/svg"
        xmlns:xlink="http://www.w3.org/1999/xlink"
        width="18px" height="13px" >
    <path fill-rule="evenodd"
          d="M17.187,12.488 L1.539,12.488 C1.224,12.488 0.969,12.233 0.969,11.919 L0.969,0.864 C0.969,0.550 1.224,0.296 1.539,0.296 L17.187,0.296 C17.501,0.296 17.756,0.550 17.756,0.864 L17.756,11.919 C17.756,12.233 17.501,12.488 17.187,12.488 ZM16.617,1.433 L2.108,1.433 L2.108,11.350 L16.617,11.350 L16.617,1.433 ZM4.197,3.144 L9.363,6.323 L14.529,3.144 C14.796,2.979 15.147,3.062 15.312,3.329 C15.477,3.597 15.393,3.947 15.126,4.112 L9.661,7.476 C9.570,7.532 9.466,7.560 9.363,7.560 C9.259,7.560 9.155,7.532 9.064,7.476 L3.599,4.112 C3.332,3.947 3.249,3.597 3.413,3.329 C3.578,3.062 3.929,2.979 4.197,3.144 Z"/>
</svg>