<svg
        xmlns="http://www.w3.org/2000/svg"
        xmlns:xlink="http://www.w3.org/1999/xlink"
        width="12px" height="16px">
    <path fill-rule="evenodd"
          d="M5.149,15.752 C5.231,15.846 5.311,15.906 5.387,15.948 L5.391,15.950 L5.546,15.998 L5.700,15.950 L5.705,15.948 C5.781,15.906 5.861,15.846 5.943,15.752 C5.943,15.752 10.517,10.690 10.976,6.304 C11.004,6.078 11.022,5.848 11.022,5.615 C11.022,2.515 8.553,0.001 5.507,0.001 C2.460,0.001 -0.010,2.515 -0.010,5.615 C-0.010,5.852 0.009,6.084 0.037,6.313 C0.509,10.698 5.149,15.752 5.149,15.752 ZM5.507,2.004 C7.463,2.004 9.054,3.625 9.054,5.615 C9.054,7.606 7.463,9.226 5.507,9.226 C3.551,9.226 1.958,7.606 1.958,5.615 C1.958,3.625 3.551,2.004 5.507,2.004 Z"/>
</svg>