<svg
        xmlns="http://www.w3.org/2000/svg"
        xmlns:xlink="http://www.w3.org/1999/xlink"
        width="15px" height="15px">
    <path fill-rule="evenodd"
          d="M7.632,7.223 L10.697,10.506 L10.111,11.107 L6.406,7.811 L6.338,7.292 L6.603,2.339 L7.373,2.339 L7.632,7.223 ZM14.500,7.250 C14.500,11.254 11.254,14.500 7.250,14.500 C3.246,14.500 -0.000,11.254 -0.000,7.250 C-0.000,3.246 3.246,-0.000 7.250,-0.000 C11.254,-0.000 14.500,3.246 14.500,7.250 ZM13.292,7.250 C13.292,3.913 10.587,1.208 7.250,1.208 C3.913,1.208 1.208,3.913 1.208,7.250 C1.208,10.587 3.913,13.292 7.250,13.292 C10.587,13.292 13.292,10.587 13.292,7.250 Z"/>
</svg>